<svg id="visual" viewBox="0 0 900 600" width="900" height="600" xmlns="http://www.w3.org/2000/svg" xmlns:xlink="http://www.w3.org/1999/xlink" version="1.1"><path d="M0 494L16.7 489C33.3 484 66.7 474 100 467.2C133.3 460.3 166.7 456.7 200 456C233.3 455.3 266.7 457.7 300 463.7C333.3 469.7 366.7 479.3 400 480.8C433.3 482.3 466.7 475.7 500 479.2C533.3 482.7 566.7 496.3 600 492.3C633.3 488.3 666.7 466.7 700 454.5C733.3 442.3 766.7 439.7 800 453.5C833.3 467.3 866.7 497.7 883.3 512.8L900 528L900 601L883.3 601C866.7 601 833.3 601 800 601C766.7 601 733.3 601 700 601C666.7 601 633.3 601 600 601C566.7 601 533.3 601 500 601C466.7 601 433.3 601 400 601C366.7 601 333.3 601 300 601C266.7 601 233.3 601 200 601C166.7 601 133.3 601 100 601C66.7 601 33.3 601 16.7 601L0 601Z" fill="#ff8b00"></path><path d="M0 524L16.7 524.3C33.3 524.7 66.7 525.3 100 518.7C133.3 512 166.7 498 200 499.3C233.3 500.7 266.7 517.3 300 520.8C333.3 524.3 366.7 514.7 400 508C433.3 501.3 466.7 497.7 500 498.7C533.3 499.7 566.7 505.3 600 501C633.3 496.7 666.7 482.3 700 482.5C733.3 482.7 766.7 497.3 800 508.5C833.3 519.7 866.7 527.3 883.3 531.2L900 535L900 601L883.3 601C866.7 601 833.3 601 800 601C766.7 601 733.3 601 700 601C666.7 601 633.3 601 600 601C566.7 601 533.3 601 500 601C466.7 601 433.3 601 400 601C366.7 601 333.3 601 300 601C266.7 601 233.3 601 200 601C166.7 601 133.3 601 100 601C66.7 601 33.3 601 16.7 601L0 601Z" fill="#df7504"></path><path d="M0 538L16.7 539.7C33.3 541.3 66.7 544.7 100 545.5C133.3 546.3 166.7 544.7 200 533.5C233.3 522.3 266.7 501.7 300 500.3C333.3 499 366.7 517 400 522C433.3 527 466.7 519 500 522.3C533.3 525.7 566.7 540.3 600 542C633.3 543.7 666.7 532.3 700 521.8C733.3 511.3 766.7 501.7 800 502.7C833.3 503.7 866.7 515.3 883.3 521.2L900 527L900 601L883.3 601C866.7 601 833.3 601 800 601C766.7 601 733.3 601 700 601C666.7 601 633.3 601 600 601C566.7 601 533.3 601 500 601C466.7 601 433.3 601 400 601C366.7 601 333.3 601 300 601C266.7 601 233.3 601 200 601C166.7 601 133.3 601 100 601C66.7 601 33.3 601 16.7 601L0 601Z" fill="#bf6105"></path><path d="M0 564L16.7 564.7C33.3 565.3 66.7 566.7 100 558.5C133.3 550.3 166.7 532.7 200 530.2C233.3 527.7 266.7 540.3 300 541.8C333.3 543.3 366.7 533.7 400 533C433.3 532.3 466.7 540.7 500 544.8C533.3 549 566.7 549 600 545C633.3 541 666.7 533 700 531.3C733.3 529.7 766.7 534.3 800 531.3C833.3 528.3 866.7 517.7 883.3 512.3L900 507L900 601L883.3 601C866.7 601 833.3 601 800 601C766.7 601 733.3 601 700 601C666.7 601 633.3 601 600 601C566.7 601 533.3 601 500 601C466.7 601 433.3 601 400 601C366.7 601 333.3 601 300 601C266.7 601 233.3 601 200 601C166.7 601 133.3 601 100 601C66.7 601 33.3 601 16.7 601L0 601Z" fill="#9f4d05"></path><path d="M0 529L16.7 528.5C33.3 528 66.7 527 100 532C133.3 537 166.7 548 200 556.2C233.3 564.3 266.7 569.7 300 568.3C333.3 567 366.7 559 400 554.8C433.3 550.7 466.7 550.3 500 546.5C533.3 542.7 566.7 535.3 600 535.3C633.3 535.3 666.7 542.7 700 548C733.3 553.3 766.7 556.7 800 553.7C833.3 550.7 866.7 541.3 883.3 536.7L900 532L900 601L883.3 601C866.7 601 833.3 601 800 601C766.7 601 733.3 601 700 601C666.7 601 633.3 601 600 601C566.7 601 533.3 601 500 601C466.7 601 433.3 601 400 601C366.7 601 333.3 601 300 601C266.7 601 233.3 601 200 601C166.7 601 133.3 601 100 601C66.7 601 33.3 601 16.7 601L0 601Z" fill="#813b04"></path><path d="M0 572L16.7 575.3C33.3 578.7 66.7 585.3 100 589.2C133.3 593 166.7 594 200 589.3C233.3 584.7 266.7 574.3 300 572.5C333.3 570.7 366.7 577.3 400 579.7C433.3 582 466.7 580 500 578.7C533.3 577.3 566.7 576.7 600 576.8C633.3 577 666.7 578 700 574.8C733.3 571.7 766.7 564.3 800 565.2C833.3 566 866.7 575 883.3 579.5L900 584L900 601L883.3 601C866.7 601 833.3 601 800 601C766.7 601 733.3 601 700 601C666.7 601 633.3 601 600 601C566.7 601 533.3 601 500 601C466.7 601 433.3 601 400 601C366.7 601 333.3 601 300 601C266.7 601 233.3 601 200 601C166.7 601 133.3 601 100 601C66.7 601 33.3 601 16.7 601L0 601Z" fill="#632a00"></path></svg>