<!DOCTYPE svg PUBLIC "-//W3C//DTD SVG 1.1//EN" "http://www.w3.org/Graphics/SVG/1.1/DTD/svg11.dtd">
<!-- Uploaded to: SVG Repo, www.svgrepo.com, Transformed by: SVG Repo Mixer Tools -->
<svg height="800px" width="800px" version="1.1" id="Layer_1" xmlns="http://www.w3.org/2000/svg" xmlns:xlink="http://www.w3.org/1999/xlink" viewBox="-66.56 -66.56 645.12 645.12" xml:space="preserve" fill="#000000">
<g id="SVGRepo_bgCarrier" stroke-width="0"/>
<g id="SVGRepo_tracerCarrier" stroke-linecap="round" stroke-linejoin="round" stroke="#CCCCCC" stroke-width="36.864"> <path style="fill:#968c5a;" d="M183.652,166.957h-77.913c-9.217,0-16.696-7.479-16.696-16.696s7.479-16.696,16.696-16.696h77.913 V166.957z"/> <path style="fill:#968c5a;" d="M183.652,434.087h-77.913c-9.217,0-16.696-7.479-16.696-16.696c0-9.217,7.479-16.696,16.696-16.696 h77.913V434.087z"/> <path style="fill:#ff7b00;" d="M501.872,268.466l-101.177-43.297L384,241.864v83.923l16.696,16.696l101.177-43.297 c6.121-2.671,10.128-8.682,10.128-15.36S507.993,271.137,501.872,268.466z"/> <polygon style="fill:#E6F3FF;" points="333.913,196.563 317.217,213.259 317.217,354.393 333.913,371.089 400.696,342.483 400.696,225.169 "/> <path style="fill:#ff7b00;" d="M384,325.788l16.696,16.696l101.177-43.297c6.121-2.671,10.128-8.682,10.128-15.36H384V325.788z"/> <polygon style="fill:#B8C9D9;" points="317.217,283.826 317.217,354.393 333.913,371.089 400.696,342.483 400.696,283.826 "/> <polygon style="fill:#ff7b00;" points="333.913,196.563 233.739,153.6 217.043,153.6 217.043,421.203 233.739,414.052 333.913,371.089 "/> <polygon style="fill:#ff7b00;" points="333.913,283.826 217.043,283.826 217.043,414.052 233.739,414.052 333.913,371.089 "/> <path style="fill:#E6F3FF;" d="M233.739,153.6v260.452l-43.513,18.638c-11.017,4.718-23.269-3.362-23.269-15.347V150.309 c0-11.984,12.252-20.066,23.269-15.347L233.739,153.6z"/> <path style="fill:#B8C9D9;" d="M166.957,283.826v133.517c0,11.984,12.252,20.066,23.269,15.347l43.513-18.638V283.826H166.957z"/> <path style="fill:#E6F3FF;" d="M111.304,495.304c0,9.217-7.479,16.696-16.696,16.696H50.087c-9.217,0-16.696-7.479-16.696-16.696 V130.228c0-5.967,3.184-11.489,8.359-14.467c5.152-2.99,11.532-2.967,16.707,0.022c15.239,8.826,12.544,8.826,27.783,0 c5.163-3,11.543-3.011,16.707-0.022c5.173,2.979,8.359,8.5,8.359,14.467v365.076H111.304z"/> <path style="fill:#B8C9D9;" d="M94.609,512c9.217,0,16.696-7.479,16.696-16.696V130.228c0-5.967-3.184-11.489-8.359-14.467 c-5.163-2.99-11.543-2.979-16.707,0.022c-7.62,4.413-10.755,6.619-13.891,6.619V512H94.609z"/> <path style="fill:#ff7b00;" d="M72.348,144.696C32.456,144.696,0,112.239,0,72.348S32.456,0,72.348,0s72.348,32.456,72.348,72.348 S112.239,144.696,72.348,144.696z"/> <path style="fill:#ff7b00;" d="M144.696,72.348C144.696,32.456,112.239,0,72.348,0v144.696 C112.239,144.696,144.696,112.239,144.696,72.348z"/> </g>
<g id="SVGRepo_iconCarrier"> <path style="fill:#968c5a;" d="M183.652,166.957h-77.913c-9.217,0-16.696-7.479-16.696-16.696s7.479-16.696,16.696-16.696h77.913 V166.957z"/> <path style="fill:#968c5a;" d="M183.652,434.087h-77.913c-9.217,0-16.696-7.479-16.696-16.696c0-9.217,7.479-16.696,16.696-16.696 h77.913V434.087z"/> <path style="fill:#ff7b00;" d="M501.872,268.466l-101.177-43.297L384,241.864v83.923l16.696,16.696l101.177-43.297 c6.121-2.671,10.128-8.682,10.128-15.36S507.993,271.137,501.872,268.466z"/> <polygon style="fill:#E6F3FF;" points="333.913,196.563 317.217,213.259 317.217,354.393 333.913,371.089 400.696,342.483 400.696,225.169 "/> <path style="fill:#ff7b00;" d="M384,325.788l16.696,16.696l101.177-43.297c6.121-2.671,10.128-8.682,10.128-15.36H384V325.788z"/> <polygon style="fill:#B8C9D9;" points="317.217,283.826 317.217,354.393 333.913,371.089 400.696,342.483 400.696,283.826 "/> <polygon style="fill:#ff7b00;" points="333.913,196.563 233.739,153.6 217.043,153.6 217.043,421.203 233.739,414.052 333.913,371.089 "/> <polygon style="fill:#ff7b00;" points="333.913,283.826 217.043,283.826 217.043,414.052 233.739,414.052 333.913,371.089 "/> <path style="fill:#E6F3FF;" d="M233.739,153.6v260.452l-43.513,18.638c-11.017,4.718-23.269-3.362-23.269-15.347V150.309 c0-11.984,12.252-20.066,23.269-15.347L233.739,153.6z"/> <path style="fill:#B8C9D9;" d="M166.957,283.826v133.517c0,11.984,12.252,20.066,23.269,15.347l43.513-18.638V283.826H166.957z"/> <path style="fill:#E6F3FF;" d="M111.304,495.304c0,9.217-7.479,16.696-16.696,16.696H50.087c-9.217,0-16.696-7.479-16.696-16.696 V130.228c0-5.967,3.184-11.489,8.359-14.467c5.152-2.99,11.532-2.967,16.707,0.022c15.239,8.826,12.544,8.826,27.783,0 c5.163-3,11.543-3.011,16.707-0.022c5.173,2.979,8.359,8.5,8.359,14.467v365.076H111.304z"/> <path style="fill:#B8C9D9;" d="M94.609,512c9.217,0,16.696-7.479,16.696-16.696V130.228c0-5.967-3.184-11.489-8.359-14.467 c-5.163-2.99-11.543-2.979-16.707,0.022c-7.62,4.413-10.755,6.619-13.891,6.619V512H94.609z"/> <path style="fill:#ff7b00;" d="M72.348,144.696C32.456,144.696,0,112.239,0,72.348S32.456,0,72.348,0s72.348,32.456,72.348,72.348 S112.239,144.696,72.348,144.696z"/> <path style="fill:#ff7b00;" d="M144.696,72.348C144.696,32.456,112.239,0,72.348,0v144.696 C112.239,144.696,144.696,112.239,144.696,72.348z"/> </g>
</svg>